<svg version="1.1" id="Layer_1" xmlns="http://www.w3.org/2000/svg" xmlns:xlink="http://www.w3.org/1999/xlink" x="0px" y="0px"
	 width="100%" viewBox="0 0 512 512" enable-background="new 0 0 512 512" xml:space="preserve">
<path fill="#000000" opacity="1.000000" stroke="none" 
	d="
M356.000000,0.999999 
	C408.303253,1.000000 460.606476,1.000000 512.942505,1.000000 
	C512.942505,171.666672 512.942505,342.333344 512.942505,513.000000 
	C482.569061,513.000000 452.253204,513.000000 421.133606,512.751343 
	C429.252747,507.203369 431.192780,499.193237 431.169403,489.223999 
	C430.910034,378.559631 431.006714,267.894440 431.005707,157.229446 
	C431.005615,148.474930 427.118774,142.634888 419.057587,139.586243 
	C417.115631,138.851837 414.981140,138.626663 412.473999,138.107422 
	C311.538940,138.035568 211.065002,138.011536 110.591103,138.053406 
	C106.337158,138.055176 102.058876,138.481094 97.834831,139.035980 
	C89.301765,140.156876 83.022018,147.184326 83.019821,155.685684 
	C82.990456,269.156372 82.986954,382.627075 83.038132,496.097717 
	C83.040764,501.931732 85.424469,506.739014 90.498970,510.053528 
	C91.533005,510.728943 92.176483,512.002258 93.000000,513.000000 
	C62.350971,513.000000 31.701941,513.000000 1.026456,513.000000 
	C1.026456,342.449127 1.026456,171.898254 1.026456,1.000000 
	C53.020378,1.000000 105.041534,1.000000 157.868378,1.246760 
	C152.096115,5.570514 145.849014,10.039373 143.128281,17.723454 
	C141.630203,21.954456 140.620346,26.358328 139.300598,31.000004 
	C137.617920,31.000004 135.802353,31.000002 133.986771,31.000006 
	C112.173584,31.000048 90.350990,31.370584 68.551857,30.817236 
	C59.868168,30.596809 49.630737,41.754124 49.857346,49.503395 
	C50.329262,65.641342 50.370571,81.814117 49.874233,97.950592 
	C49.523766,109.344604 58.607838,119.065987 71.201683,119.043770 
	C127.982391,118.943596 184.763382,119.004196 241.544266,118.992928 
	C246.702789,118.991905 251.861267,118.891685 257.482513,118.907677 
	C280.443634,118.987068 302.942047,119.001808 325.440430,119.004333 
	C364.437805,119.008720 403.435760,118.883476 442.432129,119.082428 
	C453.643188,119.139633 464.791626,110.752579 464.179718,97.760063 
	C463.427887,81.796555 463.502319,65.748741 464.205414,49.780777 
	C464.570496,41.490131 453.552887,30.554527 445.215332,30.790857 
	C423.401031,31.409199 401.557526,30.999617 379.725677,30.999798 
	C377.928619,30.999813 376.131561,30.999800 374.414825,30.999800 
	C372.390320,18.653870 368.954224,7.766387 356.391541,2.736955 
	C356.079285,2.611956 356.122559,1.598881 356.000000,0.999999 
z"/>
<path fill="#F6616A" opacity="1.000000" stroke="none" 
	d="
M93.468658,513.000000 
	C92.176483,512.002258 91.533005,510.728943 90.498970,510.053528 
	C85.424469,506.739014 83.040764,501.931732 83.038132,496.097717 
	C82.986954,382.627075 82.990456,269.156372 83.019821,155.685684 
	C83.022018,147.184326 89.301765,140.156876 97.834831,139.035980 
	C102.058876,138.481094 106.337158,138.055176 110.591103,138.053406 
	C211.065002,138.011536 311.538940,138.035568 412.108765,138.281708 
	C410.058014,138.663849 407.911407,138.939804 405.764648,138.940918 
	C358.339996,138.965714 310.915161,139.024109 263.491028,138.865631 
	C258.513336,138.848999 256.882355,140.260330 256.900116,145.357559 
	C257.067200,193.280807 256.988770,241.204926 257.036346,289.128723 
	C257.038269,291.071472 257.588318,293.013672 257.796570,295.175415 
	C257.493866,295.624115 257.257690,295.830902 256.719360,295.838379 
	C238.875458,278.109375 221.315094,260.555908 203.751266,243.005905 
	C200.568619,239.825760 197.509293,236.505646 194.156570,233.515244 
	C182.432236,223.057938 164.607254,227.146118 159.707748,241.464371 
	C156.708344,250.229828 159.089554,257.764404 165.597046,264.243469 
	C184.845795,283.408234 204.030533,302.637329 223.233109,321.848450 
	C224.504898,323.120819 225.716278,324.453552 227.169052,325.982666 
	C225.747620,327.492493 224.551025,328.831451 223.283539,330.099579 
	C203.964005,349.429413 184.601318,368.716248 165.323090,388.087158 
	C155.936111,397.519196 156.193604,411.132568 165.744095,419.461884 
	C174.300125,426.923859 186.341751,426.289978 195.017853,417.688019 
	C215.723419,397.159424 236.343048,376.544159 257.199524,356.099609 
	C257.694031,356.421814 257.869080,356.685974 257.719086,357.382202 
	C257.340485,360.045532 257.021851,362.354462 257.020538,364.663544 
	C256.992310,414.109039 256.999603,463.554504 257.000000,513.000000 
	C202.645767,513.000000 148.291550,513.000000 93.468658,513.000000 
z"/>
<path fill="#F64650" opacity="1.000000" stroke="none" 
	d="
M257.882965,294.956146 
	C257.588318,293.013672 257.038269,291.071472 257.036346,289.128723 
	C256.988770,241.204926 257.067200,193.280807 256.900116,145.357559 
	C256.882355,140.260330 258.513336,138.848999 263.491028,138.865631 
	C310.915161,139.024109 358.339996,138.965714 405.764648,138.940918 
	C407.911407,138.939804 410.058014,138.663849 412.569946,138.341599 
	C414.981140,138.626663 417.115631,138.851837 419.057587,139.586243 
	C427.118774,142.634888 431.005615,148.474930 431.005707,157.229446 
	C431.006714,267.894440 430.910034,378.559631 431.169403,489.223999 
	C431.192780,499.193237 429.252747,507.203369 420.664978,512.751343 
	C366.645782,513.000000 312.291534,513.000000 257.468658,513.000000 
	C256.999603,463.554504 256.992310,414.109039 257.020538,364.663544 
	C257.021851,362.354462 257.340485,360.045532 258.004303,357.556519 
	C260.859344,359.728271 263.226074,362.075378 265.582764,364.432526 
	C283.374878,382.228302 301.109039,400.082550 318.979004,417.799774 
	C328.089661,426.832581 340.080383,427.249390 348.963715,419.155731 
	C358.303864,410.645844 358.341888,397.442139 348.718384,387.725708 
	C329.602997,368.425842 310.328156,349.283966 291.129486,330.066528 
	C289.868927,328.804749 288.695404,327.456116 287.282745,325.933807 
	C288.788574,324.351135 290.004883,323.017273 291.279419,321.741577 
	C309.772247,303.232422 328.276733,284.734802 346.764709,266.220825 
	C348.293243,264.690155 349.836578,263.151276 351.180420,261.462921 
	C360.678680,249.529541 354.839508,231.976425 340.114349,227.961731 
	C331.445892,225.598328 324.510529,228.564819 318.436432,234.626587 
	C298.268738,254.753281 278.069885,274.848724 257.882965,294.956146 
z"/>
<path fill="#F6323E" opacity="1.000000" stroke="none" 
	d="
M355.531342,0.999999 
	C356.122559,1.598881 356.079285,2.611956 356.391541,2.736955 
	C368.954224,7.766387 372.390320,18.653870 374.414825,30.999800 
	C376.131561,30.999800 377.928619,30.999813 379.725677,30.999798 
	C401.557526,30.999617 423.401031,31.409199 445.215332,30.790857 
	C453.552887,30.554527 464.570496,41.490131 464.205414,49.780777 
	C463.502319,65.748741 463.427887,81.796555 464.179718,97.760063 
	C464.791626,110.752579 453.643188,119.139633 442.432129,119.082428 
	C403.435760,118.883476 364.437805,119.008720 325.440430,119.004333 
	C302.942047,119.001808 280.443634,118.987068 257.477478,118.449417 
	C257.006439,78.947342 257.003204,39.973671 257.000000,1.000000 
	C289.687561,1.000000 322.375122,1.000000 355.531342,0.999999 
z"/>
<path fill="#F64650" opacity="1.000000" stroke="none" 
	d="
M256.531342,1.000000 
	C257.003204,39.973671 257.006439,78.947342 257.014709,118.379272 
	C251.861267,118.891685 246.702789,118.991905 241.544266,118.992928 
	C184.763382,119.004196 127.982391,118.943596 71.201683,119.043770 
	C58.607838,119.065987 49.523766,109.344604 49.874233,97.950592 
	C50.370571,81.814117 50.329262,65.641342 49.857346,49.503395 
	C49.630737,41.754124 59.868168,30.596809 68.551857,30.817236 
	C90.350990,31.370584 112.173584,31.000048 133.986771,31.000006 
	C135.802353,31.000002 137.617920,31.000004 139.300598,31.000004 
	C140.620346,26.358328 141.630203,21.954456 143.128281,17.723454 
	C145.849014,10.039373 152.096115,5.570514 158.337036,1.246760 
	C190.687561,1.000000 223.375122,1.000000 256.531342,1.000000 
z"/>
<path fill="#EBEAEA" opacity="1.000000" stroke="none" 
	d="
M257.796570,295.175415 
	C278.069885,274.848724 298.268738,254.753281 318.436432,234.626587 
	C324.510529,228.564819 331.445892,225.598328 340.114349,227.961731 
	C354.839508,231.976425 360.678680,249.529541 351.180420,261.462921 
	C349.836578,263.151276 348.293243,264.690155 346.764709,266.220825 
	C328.276733,284.734802 309.772247,303.232422 291.279419,321.741577 
	C290.004883,323.017273 288.788574,324.351135 287.282745,325.933807 
	C288.695404,327.456116 289.868927,328.804749 291.129486,330.066528 
	C310.328156,349.283966 329.602997,368.425842 348.718384,387.725708 
	C358.341888,397.442139 358.303864,410.645844 348.963715,419.155731 
	C340.080383,427.249390 328.089661,426.832581 318.979004,417.799774 
	C301.109039,400.082550 283.374878,382.228302 265.582764,364.432526 
	C263.226074,362.075378 260.859344,359.728271 258.212036,357.202209 
	C257.869080,356.685974 257.694031,356.421814 257.200409,355.633423 
	C256.999969,335.359314 257.000824,315.687195 257.001678,296.015076 
	C257.257690,295.830902 257.493866,295.624115 257.796570,295.175415 
z"/>
<path fill="#FFFFFF" opacity="1.000000" stroke="none" 
	d="
M256.719360,295.838379 
	C257.000824,315.687195 256.999969,335.359314 256.998260,355.497650 
	C236.343048,376.544159 215.723419,397.159424 195.017853,417.688019 
	C186.341751,426.289978 174.300125,426.923859 165.744095,419.461884 
	C156.193604,411.132568 155.936111,397.519196 165.323090,388.087158 
	C184.601318,368.716248 203.964005,349.429413 223.283539,330.099579 
	C224.551025,328.831451 225.747620,327.492493 227.169052,325.982666 
	C225.716278,324.453552 224.504898,323.120819 223.233109,321.848450 
	C204.030533,302.637329 184.845795,283.408234 165.597046,264.243469 
	C159.089554,257.764404 156.708344,250.229828 159.707748,241.464371 
	C164.607254,227.146118 182.432236,223.057938 194.156570,233.515244 
	C197.509293,236.505646 200.568619,239.825760 203.751266,243.005905 
	C221.315094,260.555908 238.875458,278.109375 256.719360,295.838379 
z"/>
</svg>